<?xml version="1.0" encoding="UTF-8" standalone="no"?>
<!DOCTYPE svg PUBLIC "-//W3C//DTD SVG 1.1//EN" "http://www.w3.org/Graphics/SVG/1.1/DTD/svg11.dtd">
<svg width="100%" height="100%" viewBox="0 0 800 800" version="1.1" xmlns="http://www.w3.org/2000/svg" xmlns:xlink="http://www.w3.org/1999/xlink" xml:space="preserve" xmlns:serif="http://www.serif.com/" style="fill-rule:evenodd;clip-rule:evenodd;stroke-linecap:round;stroke-linejoin:round;stroke-miterlimit:1.5;">
    <path d="M800,96L800,704C800,756.984 756.984,800 704,800L96,800C43.016,800 0,756.984 0,704L0,96C0,43.016 43.016,0 96,0L704,0C756.984,0 800,43.016 800,96Z" style="fill:rgb(11,14,9);"/>
    <g transform="matrix(4.582908,0,0,4.582908,170.8546,170.853683)">
        <path d="M50,1.031C63.52,1.031 75.766,6.512 84.625,15.375C93.488,24.239 98.969,36.477 98.969,50C98.969,63.52 93.488,75.766 84.625,84.625C75.762,93.489 63.523,98.969 50,98.969C36.48,98.969 24.234,93.489 15.375,84.625C6.512,75.762 1.031,63.523 1.031,50C1.031,36.48 6.512,24.234 15.375,15.375C24.238,6.512 36.477,1.031 50,1.031ZM50,94.375C55.055,94.375 59.789,89.66 63.352,82.031C65.274,77.918 66.825,72.996 67.891,67.515L32.106,67.515C33.173,72.996 34.723,77.917 36.645,82.031C40.208,89.656 44.942,94.375 49.997,94.375L50,94.375ZM68.652,62.926C69.215,58.836 69.515,54.5 69.515,50C69.515,45.504 69.211,41.164 68.652,37.074L31.347,37.074C30.785,41.164 30.484,45.5 30.484,50C30.484,54.496 30.788,58.836 31.347,62.926L68.652,62.926ZM67.894,32.485C66.828,27.005 65.277,22.083 63.355,17.969C59.793,10.344 55.058,5.625 50.003,5.625C44.948,5.625 40.214,10.34 36.651,17.969C34.729,22.082 33.178,27.004 32.112,32.485L67.897,32.485L67.894,32.485ZM67.496,83.973C65.879,87.434 64.007,90.395 61.929,92.758C69.39,90.684 76.058,86.704 81.378,81.383C85.331,77.43 88.542,72.735 90.785,67.52L72.551,67.52C71.406,73.727 69.672,79.313 67.492,83.977L67.496,83.973ZM38.074,92.758C36,90.399 34.125,87.434 32.507,83.973C30.328,79.313 28.597,73.723 27.449,67.516L9.215,67.516C11.457,72.727 14.664,77.426 18.621,81.379C23.941,86.7 30.613,90.68 38.07,92.754L38.074,92.758ZM26.726,62.93C26.187,58.813 25.894,54.481 25.894,50.004C25.894,45.532 26.183,41.196 26.726,37.078L7.538,37.078C6.292,41.168 5.628,45.504 5.628,50.004C5.628,54.5 6.296,58.84 7.538,62.93L26.726,62.93ZM27.448,32.489C28.593,26.282 30.327,20.696 32.507,16.032C34.124,12.571 35.995,9.61 38.073,7.247C30.613,9.321 23.944,13.302 18.624,18.622C14.671,22.575 11.46,27.271 9.218,32.485L27.452,32.485L27.448,32.489ZM61.928,7.251C64.003,9.611 65.878,12.576 67.495,16.037C69.675,20.697 71.405,26.287 72.553,32.494L90.787,32.494C88.545,27.283 85.338,22.583 81.381,18.631C76.061,13.31 69.389,9.33 61.932,7.256L61.928,7.251ZM73.276,37.079C73.815,41.197 74.108,45.529 74.108,50.005C74.108,54.478 73.819,58.814 73.276,62.931L92.464,62.931C93.711,58.842 94.375,54.506 94.375,50.005C94.375,45.509 93.707,41.169 92.464,37.079L73.276,37.079Z" style="fill:rgb(212,255,56);fill-rule:nonzero;"/>
    </g>
    <g transform="matrix(0.980056,0,0,0.980056,-37.377787,-24.392873)">
        <circle cx="446.278" cy="433.029" r="293.53" style="fill:none;stroke:rgb(212,255,56);stroke-width:8.5px;"/>
    </g>
</svg>
